<svg height="502" width="971.44" xmlns="http://www.w3.org/2000/svg" xmlns:xlink="http://www.w3.org/1999/xlink"><linearGradient id="a" gradientUnits="userSpaceOnUse" x1="599.5" x2="599.5" y1="668.05" y2="199"><stop offset="0" stop-color="#808080" stop-opacity=".25"/><stop offset=".54" stop-color="#808080" stop-opacity=".12"/><stop offset="1" stop-color="#808080" stop-opacity=".1"/></linearGradient><linearGradient id="b" x1="485.72" x2="485.72" xlink:href="#a" y1="258.88" y2="71.12"/><linearGradient id="c" x1="132" x2="303" xlink:href="#a" y1="515" y2="515"/><linearGradient id="d" x1="933" x2="1031" xlink:href="#a" y1="568.28" y2="568.28"/><path d="m852.69 199h-506.38a16.37 16.37 0 0 0 -16.31 16.42v348.52a16.37 16.37 0 0 0 16.31 16.42h174.16v60.16h-7.94a8.3 8.3 0 0 0 -8.27 8.33v12.07h16.21v7.14h158.06v-7.14h16.21v-12.07a8.3 8.3 0 0 0 -8.27-8.33h-7.47v-.52h-.51v-59.64h174.2a16.37 16.37 0 0 0 16.31-16.42v-348.52a16.37 16.37 0 0 0 -16.31-16.42z" fill="url(#a)" opacity=".7" transform="translate(-114.28 -199)"/><path d="m407.72 371h156v92h-156z" fill="#bdbdbd"/><path d="m410.79 380h150.17c1.81-7.87 3.26-13 3.26-13h-157s1.61 5.11 3.57 13z" opacity=".1"/><path d="m235.82 3h499.8a16.1 16.1 0 0 1 16.1 16.1v307.9h-532v-307.9a16.1 16.1 0 0 1 16.1-16.1z" fill="#535461"/><path d="m735.62 377h-499.8a16.1 16.1 0 0 1 -16.1-16.1v-33.9h532v33.9a16.1 16.1 0 0 1 -16.1 16.1z" fill="#bdbdbd"/><circle cx="485.72" cy="352" fill="#535461" r="9"/><path d="m399.89 436h171.66a8.17 8.17 0 0 1 8.17 8.17v11.83h-188v-11.83a8.17 8.17 0 0 1 8.17-8.17z" fill="#bdbdbd"/><rect fill="url(#b)" height="187.76" opacity=".5" rx="4.5" width="330" x="320.72" y="71.12"/><rect fill="#fff" height="183.96" rx="4.5" width="321.54" x="324.95" y="72.5"/><rect fill="#e7475e" height="31.9" opacity=".5" rx="4.5" width="35.44" x="414.52" y="98.91"/><rect fill="#e0e0e0" height="3.54" rx="1.77" width="95.69" x="460.59" y="98.91"/><rect fill="#e0e0e0" height="3.54" rx="1.77" width="79.54" x="460.59" y="109.55"/><rect fill="#e7475e" height="31.9" opacity=".5" rx="4.5" width="35.44" x="414.52" y="148.53"/><rect fill="#e0e0e0" height="3.54" rx="1.77" width="95.69" x="460.59" y="148.53"/><rect fill="#e0e0e0" height="3.54" rx="1.77" width="95.69" x="460.59" y="159.16"/><rect fill="#e7475e" height="31.9" opacity=".5" rx="4.5" width="35.44" x="414.52" y="198.15"/><rect fill="#e0e0e0" height="3.54" rx="1.77" width="95.69" x="460.59" y="198.15"/><rect fill="#e0e0e0" height="3.54" rx="1.59" width="96.33" x="460.59" y="208.78"/><path d="m485.72 42v-22m0 59v-28.87" stroke="#e7475e" stroke-miterlimit="10" stroke-width="2"/><circle cx="485.72" cy="79" fill="#e7475e" r="4"/><circle cx="485.72" cy="46" fill="none" r="4" stroke="#fff" stroke-miterlimit="10"/><path d="m485.72 42v-22m0 59v-28.87" stroke="#e7475e" stroke-miterlimit="10" stroke-width="2"/><circle cx="485.72" cy="79" fill="#e7475e" r="4"/><circle cx="485.72" cy="46" fill="none" r="4" stroke="#fff" stroke-miterlimit="10"/><path d="m485.72 279v31m0-59v28.87" stroke="#e7475e" stroke-miterlimit="10" stroke-width="2"/><circle cx="485.72" cy="251" fill="#e7475e" r="4"/><path d="m305.72 168.5h-31.5m59 0h-28.87" stroke="#e7475e" stroke-miterlimit="10" stroke-width="2"/><circle cx="333.22" cy="168.5" fill="#e7475e" r="4"/><path d="m408.22 435.5h156v3h-156z" opacity=".1"/><path d="m293.48 566.06h-72.4l1-8.14c20.46-18.37 33.69-67.31 33.69-67.31a6.78 6.78 0 0 0 -.87.18c-12 2.42-20.54 7.35-26.51 13.28l2.54-21.66c37.8-8.14 52.79-58.14 52.79-58.14-24.12 5.35-39.16 13.63-48.5 21.49l3.72-31.82c25.56 8.77 52-37.82 52-37.82l-1-.21.5-.32-.76.27c-28.25-6.09-43.35 10.06-48.25 16.77l.37-3.12q-1.12 3-2.18 5.88v.08q-3 8.13-5.49 16.06-2.17 6.77-4.06 13.4v-.06s-1.17-28.46-31.18-35.95c0 0 3.15 62.07 26.93 51.91-2.2 9-4 17.66-5.56 26.07q-1.49 8.21-2.6 16l-.14.16.14-.12-.06.41q-1 7.07-1.7 13.78c.46-8.62-1.11-33.52-30.45-56.92 0 0-39 68.54 27.5 82l.44.38-.1-.31.6.13.27-3.52a369.39 369.39 0 0 0 .23 44.1c.07 1 .14 2 .21 2.95h-73.23c-27.94 57.79 15.52 89.46 15.52 89.46h120c46.6-58.74 16.59-89.34 16.59-89.34z" fill="url(#c)" opacity=".7" transform="translate(-114.28 -199)"/><path d="m102.72 389s-19-83 23-190" fill="none" opacity=".6" stroke="#535461" stroke-miterlimit="10" stroke-width="3"/><path d="m28.72 364h147s29 37-16 92h-116s-42-38-15-92z" fill="#e7475e"/><g fill="#4db6ac"><path d="m123.61 204.5s14.61-26 49.61-18c0 0-28.93 49.26-55 33.13zm-9.26 27.59s-1.13-26.59-30.13-33.59c0 0 3 58 26 48.5zm-9.48 39.27s5.35-27.86 61.35-39.86c0 0-17.86 57.62-63.93 55.31z"/><path d="m100.33 302.63s5.89-29.13-29.11-56.13c0 0-38 64.67 27.48 76.83z"/><path d="m99.28 342.67s-4.06-41.17 39.94-49.17c0 0-16.07 57.49-40 67.74z"/></g><path d="m118.72 220s38-29 54-34m-70.5 100.5s46-49 64-55m-82-33s28 38 26 48m-39 0s15 68 27 77m1 38s24-66 40-68" fill="none" opacity=".3" stroke="#535461" stroke-miterlimit="10"/><path d="m175.72 364h-147c-.33.67-.65 1.34-1 2h143s28.29 36.11-14.4 90h3.4c45-55 16-92 16-92z" opacity=".1"/><path d="m0 455.6h971.44v32.93h-971.44z" fill="#e0e0e0"/><path d="m41.16 488.53h889.11v13.47h-889.11z" fill="#e0e0e0"/><path d="m41.16 488.53h889.11v4.49h-889.11z" opacity=".1"/><path d="m690.22 168.5h6m-59 0h44.88" stroke="#e7475e" stroke-miterlimit="10" stroke-width="2"/><circle cx="637.22" cy="168.5" fill="#e7475e" r="4"/><circle cx="686.22" cy="168.5" fill="none" r="4" stroke="#fff" stroke-miterlimit="10"/><path d="m1027 643.88.1-.15q.31-.48.61-1l.11-.19q.29-.49.55-1l.09-.17c.2-.39.39-.78.56-1.19a23.79 23.79 0 0 0 .94-2.51l.1-.33c.09-.31.18-.62.26-.93l.1-.44q.1-.42.18-.85c0-.16.06-.32.09-.48s.09-.56.13-.85 0-.33.06-.49.06-.61.08-.92v-84.38h-13.85v-40.48h-17v40.48h-11.72v-58.14h-17v58.14h-6.39v-66.45h-17v66.45h-15v82.6c0 13.48 11.21 24.4 25 24.4h48a25.19 25.19 0 0 0 20.24-10.06q.37-.53.76-1.06z" fill="url(#d)" opacity=".7" transform="translate(-114.28 -199)"/><path d="m835.72 321h16v100h-16z" fill="#535461"/><path d="m835.72 288h16v33h-16z" fill="#3ad29f"/><path d="m857.72 329h16v100h-16z" fill="#535461"/><path d="m857.72 296h16v33h-16z" fill="#4d8af0"/><path d="m884.72 346h16v100h-16z" fill="#535461"/><path d="m884.72 313h16v33h-16z" fill="#f55f44"/><path d="m821.72 352h92v79.5a23.5 23.5 0 0 1 -23.5 23.5h-45a23.5 23.5 0 0 1 -23.5-23.5z" fill="#e7475e"/><path d="m821.72 352v4h88v79.5a23.39 23.39 0 0 1 -5 14.49 23.45 23.45 0 0 0 9-18.49v-79.5z" opacity=".1"/></svg>