<svg viewBox="0 0 150.7 48.8" xmlns="http://www.w3.org/2000/svg" xmlns:xlink="http://www.w3.org/1999/xlink"><linearGradient id="a" gradientTransform="matrix(40.649 0 0 24.417 18688.795 -621.337)" gradientUnits="userSpaceOnUse" x1="-459.869" x2="-458.869" y1="28.228" y2="28.228"><stop offset=".007" stop-color="#3cb5fb"/><stop offset="1" stop-color="#0071ff"/></linearGradient><linearGradient id="b" gradientTransform="matrix(40.649 0 0 24.417 18688.795 -621.337)" gradientUnits="userSpaceOnUse" x1="-459.231" x2="-459.504" y1="28.605" y2="27.817"><stop offset="0" stop-color="#e7475e"/><stop offset=".78" stop-color="#f9566e"/><stop offset="1" stop-color="#f56378"/></linearGradient><linearGradient id="c" gradientTransform="matrix(39.775 0 0 35.453 17934.685 -649.505)" gradientUnits="userSpaceOnUse" x1="-450.901" x2="-449.901" y1="18.82" y2="18.82"><stop offset="0" stop-color="#ff8f8f"/><stop offset=".315" stop-color="#fd6a7f"/><stop offset="1" stop-color="#e7475e"/></linearGradient><path d="m60.07 33.122-1.1-3.2h-6.8l-1 3.2h-4.9l6.6-19h5.6l6.6 19zm-6.7-6.7h4.5l-2.2-6.8zm18.5-6.4c1-1.4 2.5-2.1 4.4-2.1s3.5.7 4.9 2.2c1.3 1.4 2 3.3 2 5.5s-.7 4.1-2 5.5-2.9 2.2-4.8 2.2-3.4-.8-4.5-2.4v9.4h-4.6v-22.3h4.6zm5.6 8.3c.7-.6 1-1.6 1-2.7 0-1.2-.3-2.1-1-2.8-.7-.6-1.4-1-2.3-1s-1.6.3-2.3 1c-.7.6-1 1.6-1 2.7 0 1.2.3 2.1 1 2.8.7.6 1.4 1 2.3 1s1.7-.3 2.3-1zm13.3-8.3c1-1.4 2.5-2.1 4.4-2.1s3.5.7 4.9 2.2c1.3 1.4 2 3.3 2 5.5s-.7 4.1-2 5.5-2.9 2.2-4.8 2.2-3.4-.8-4.5-2.4v9.4h-4.6v-22.3h4.6zm5.6 8.3c.7-.6 1-1.6 1-2.7 0-1.2-.3-2.1-1-2.8-.7-.6-1.4-1-2.3-1s-1.6.3-2.3 1c-.7.6-1 1.6-1 2.7 0 1.2.3 2.1 1 2.8.7.6 1.4 1 2.3 1 .8 0 1.6-.3 2.3-1zm15 .9h1.6v3.9h-2.3c-1.7 0-3-.4-3.9-1.1s-1.4-2-1.4-3.8v-6.3h-1.4v-3.8h1.4v-3.7h4.6v3.7h3v3.8h-3v6.2c0 .7.5 1.1 1.4 1.1zm6 2c-1.5-1.4-2.3-3.3-2.3-5.6s.8-4.2 2.3-5.6 3.4-2.1 5.6-2.1 4.1.7 5.6 2.1 2.3 3.3 2.3 5.6-.7 4.2-2.2 5.6-3.4 2.1-5.6 2.1c-2.3 0-4.2-.7-5.7-2.1zm7.9-2.8c.6-.6.9-1.6.9-2.8s-.3-2.2-.9-2.8-1.4-1-2.2-1c-.9 0-1.6.3-2.2 1-.6.6-.9 1.6-.9 2.8s.3 2.2 1 2.8c.6.6 1.4 1 2.3 1s1.3-.4 2-1zm13.2-10.4v2.2c1-1.6 2.5-2.4 4.6-2.4 1.7 0 3.1.6 4.2 1.7 1.1 1.2 1.6 2.7 1.6 4.7v8.9h-4.7v-8.2c0-1-.3-1.7-.8-2.3-.5-.5-1.2-.8-2.1-.8s-1.6.3-2.1.8-.8 1.3-.8 2.3v8.2h-4.6v-15.1z" fill="#333"/><g transform="translate(4.362 -31.344)"><path d="m36.2 68.1-22.2-12.4-18.4 11.1 20.6 13.3z" fill="url(#a)"/><path d="m36.2 68.1-22.2-12.4-18.4 11.1 20.6 13.3z" fill="url(#b)"/><path d="m39.8 11.6-19.1-11.6-20.6 13.4v22z" fill="url(#c)" transform="translate(-4.36 31.34)"/></g></svg>