<svg viewBox="0 0 52.303 52.303" xmlns="http://www.w3.org/2000/svg"><path d="m8 303.214a3.618 3.618 0 0 0 3.607 3.607h43.286a3.618 3.618 0 0 0 3.607-3.607v-7.214h-50.5z" fill="#e7475e" transform="translate(-7.098 -262.634)"/><g fill="#322153"><path d="m47.794 0h-43.285a4.465 4.465 0 0 0 -4.509 4.509v32.464a4.465 4.465 0 0 0 4.509 4.509h12.986l-2.705 5.411h-1.263a2.657 2.657 0 0 0 -2.706 2.707 2.456 2.456 0 0 0 .812 1.894 2.6 2.6 0 0 0 1.894.812h25.25a2.657 2.657 0 0 0 2.705-2.706 2.774 2.774 0 0 0 -2.705-2.705h-1.263l-2.705-5.411h12.985a4.465 4.465 0 0 0 4.506-4.511v-32.464a4.465 4.465 0 0 0 -4.506-4.509zm-12.264 46.893h-16.593a.9.9 0 0 0 0 1.8h19.84a.925.925 0 0 1 .9.9.852.852 0 0 1 -.9.9h-25.25a.925.925 0 0 1 -.9-.9.852.852 0 0 1 .9-.9h1.8a.867.867 0 0 0 .812-.541l1.533-3.066h4.87a.9.9 0 1 0 0-1.8h-3.965l.9-1.8h13.348zm12.264-7.214h-43.285a2.657 2.657 0 0 1 -2.709-2.706v-32.464a2.657 2.657 0 0 1 2.709-2.709h43.285a2.657 2.657 0 0 1 2.706 2.709v24.348h-45.991a.9.9 0 1 0 0 1.8h45.991v6.312a2.657 2.657 0 0 1 -2.706 2.709z"/><path d="m210.705 288a2.705 2.705 0 1 0 2.705 2.705 2.657 2.657 0 0 0 -2.705-2.705zm0 3.607a.9.9 0 1 1 .9-.9.852.852 0 0 1 -.9.9z" transform="translate(-184.554 -255.536)"/><path d="m32.9 41.018a.819.819 0 0 0 .631-.271l7.214-7.214a.893.893 0 0 0 -1.262-1.262l-7.214 7.214a.872.872 0 0 0 0 1.262.819.819 0 0 0 .631.271z" transform="translate(-28.393 -28.393)"/><path d="m32.9 37.411a.819.819 0 0 0 .631-.271l3.607-3.607a.893.893 0 0 0 -1.262-1.262l-3.607 3.607a.872.872 0 0 0 0 1.262.819.819 0 0 0 .631.271z" transform="translate(-28.393 -28.393)"/><path d="m67.878 64.271-3.607 3.607a.872.872 0 0 0 0 1.262.872.872 0 0 0 1.262 0l3.607-3.607a.893.893 0 0 0 -1.262-1.262z" transform="translate(-56.786 -56.786)"/><path d="m388.509 288a.852.852 0 0 0 -.9.9 2.581 2.581 0 0 1 -2.705 2.705.9.9 0 0 0 -.9.9.852.852 0 0 0 .9.9 4.335 4.335 0 0 0 4.509-4.509.852.852 0 0 0 -.904-.896z" transform="translate(-340.715 -255.536)"/></g></svg>