<svg viewBox="0 0 59.313 59.358" xmlns="http://www.w3.org/2000/svg"><circle cx="29.636" cy="33.775" fill="#e7475e" r="16.374"/><g fill="#322153"><path d="m75.45 75.729c.1 0 .1-.1 0 0a25.448 25.448 0 0 0 .1-36.124v-.1c0-.1 0 0-.1 0a25.362 25.362 0 0 0 -18.011-7.47 25.689 25.689 0 0 0 -14.327 4.4 1.036 1.036 0 0 0 1.126 1.74 22.833 22.833 0 0 1 12.178-4.093v3.07a.967.967 0 0 0 1.023 1.023 19.435 19.435 0 0 1 19.443 19.441.967.967 0 0 0 1.023 1.023h3.07a23.184 23.184 0 0 1 -6.14 14.839l-2.149-2.149a1.013 1.013 0 0 0 -1.433 1.433l2.147 2.148a23.412 23.412 0 0 1 -14.839 6.14v-3.07a1.023 1.023 0 0 0 -2.047 0v3.07a23.184 23.184 0 0 1 -14.839-6.14l2.149-2.149a1.013 1.013 0 0 0 -1.424-1.433l-2.149 2.149a23.412 23.412 0 0 1 -6.14-14.839h3.07a1.023 1.023 0 0 0 0-2.047h-3.281a23.745 23.745 0 0 1 3.89-11.972 1.036 1.036 0 0 0 -1.74-1.126 25.645 25.645 0 0 0 -4.2 14.122 25.362 25.362 0 0 0 7.47 18.011v.1c0 .1 0 0 .1 0a25.447 25.447 0 0 0 36.022 0zm-3.582-33.975a21.111 21.111 0 0 0 -13.406-5.526v-2.149a23.184 23.184 0 0 1 14.838 6.14zm1.432 1.432 1.433-1.433a23.412 23.412 0 0 1 6.14 14.839h-2.046a21.111 21.111 0 0 0 -5.527-13.406z" transform="translate(-27.803 -27.934)"/><path d="m4.843.106a.9.9 0 0 0 -.614.921v3.073h-3.07a.9.9 0 0 0 -.921.614 1.115 1.115 0 0 0 .2 1.126l4.098 4.09a.929.929 0 0 0 .716.307h3.684l18.42 18.42h-1.637a1.023 1.023 0 0 0 0 2.047h4.093a.376.376 0 0 0 .307-.1h.1c.1 0 .1-.1.2-.1a.1.1 0 0 0 .1-.1c.1-.1.1-.2.2-.307 0-.1.1-.2.1-.307v-4.1a1.023 1.023 0 0 0 -2.047 0v1.637l-18.403-18.42v-3.787a.929.929 0 0 0 -.307-.716l-4.094-4.093a.934.934 0 0 0 -1.125-.205zm.819 8.084-2.047-2.046h1.228l2.046 2.047zm.614-4.707 2.046 2.047v1.228l-2.047-2.047z" transform="translate(-.177)"/><path d="m99.437 104.628a1.035 1.035 0 0 0 -1.433.409 17.072 17.072 0 0 0 -2.149 8.391 17.4 17.4 0 1 0 17.4-17.4 17.072 17.072 0 0 0 -8.391 2.149 1.054 1.054 0 0 0 1.023 1.842 15.62 15.62 0 0 1 7.47-1.944 15.35 15.35 0 1 1 -15.357 15.354 14.809 14.809 0 0 1 1.944-7.47 1.168 1.168 0 0 0 -.507-1.331z" transform="translate(-83.616 -83.748)"/><circle cx="29.636" cy="17.401" r="1.023"/><circle cx="29.636" cy="41.961" r="1.023"/><circle cx="17.355" cy="29.681" r="1.023"/><circle cx="41.916" cy="29.681" r="1.023"/><circle cx="38.339" cy="38.365" r="1.023"/><circle cx="20.952" cy="38.384" r="1.023"/><circle cx="38.319" cy="20.977" r="1.023"/><path d="m253.532 224.032a.967.967 0 0 0 -1.023 1.023 27.646 27.646 0 0 1 -27.63 27.63 1.023 1.023 0 1 0 0 2.047 29.7 29.7 0 0 0 29.677-29.677.967.967 0 0 0 -1.024-1.023z" transform="translate(-195.242 -195.374)"/></g></svg>